<svg role="img" viewBox="0 0 24 24" xmlns="http://www.w3.org/2000/svg">
  <title>LeetCode</title>
  <path fill="#FFA116" d="M16.1 17.55a1.09 1.09 0 0 1 1.55 1.54l-2.22 2.23a5.4 5.4 0 0 1-7.64 0l-4.1-4.1a5.4 5.4 0 0 1 0-7.64l4.1-4.1a5.4 5.4 0 0 1 7.64 0l2.22 2.23a1.09 1.09 0 0 1-1.55 1.54L13.88 7.03a3.22 3.22 0 0 0-4.55 0l-4.1 4.1a3.22 3.22 0 0 0 0 4.55l4.1 4.1a3.22 3.22 0 0 0 4.55 0l2.22-2.23Z"/>
  <path fill="#B3B3B3" d="M10.5 13.1a1.1 1.1 0 0 1 0-2.2h8.65a1.1 1.1 0 0 1 0 2.2H10.5Z"/>
  <path fill="#000000" d="M8.77 7.57 13.46 2.9a1.09 1.09 0 0 1 1.54 1.54l-4.68 4.68a1.09 1.09 0 0 1-1.55-1.55Z"/>
</svg>
