<svg xmlns="http://www.w3.org/2000/svg" width="1200" height="630" viewBox="0 0 1200 630" role="img" aria-labelledby="og-title og-desc">
  <title id="og-title">Abderrahmane Ouroui portfolio preview</title>
  <desc id="og-desc">Social preview card for a DevOps and Platform Engineer portfolio.</desc>
  <defs>
    <linearGradient id="og-bg" x1="0" y1="0" x2="1200" y2="630" gradientUnits="userSpaceOnUse">
      <stop offset="0" stop-color="#17110E" />
      <stop offset="0.5" stop-color="#070605" />
      <stop offset="1" stop-color="#120C0A" />
    </linearGradient>
    <linearGradient id="og-border" x1="88" y1="88" x2="1112" y2="542" gradientUnits="userSpaceOnUse">
      <stop offset="0" stop-color="#FF9B82" />
      <stop offset="0.45" stop-color="#C74634" />
      <stop offset="1" stop-color="#7D2C22" />
    </linearGradient>
    <filter id="og-shadow" x="-10%" y="-10%" width="120%" height="120%" color-interpolation-filters="sRGB">
      <feDropShadow dx="0" dy="24" stdDeviation="28" flood-color="#000000" flood-opacity="0.34" />
    </filter>
  </defs>

  <rect width="1200" height="630" fill="url(#og-bg)" />
  <rect x="52" y="52" width="1096" height="526" rx="42" fill="#100C09" stroke="url(#og-border)" stroke-width="3" opacity="0.96" />
  <path d="M88 492h1024" stroke="#2D211B" stroke-width="2" />
  <path d="M88 138h1024" stroke="#2D211B" stroke-width="2" opacity="0.65" />

  <g transform="translate(104 160) scale(1.25)" filter="url(#og-shadow)">
    <rect width="256" height="256" rx="54" fill="#070605" />
    <rect x="10" y="10" width="236" height="236" rx="48" fill="#15100D" />
    <rect x="18" y="18" width="220" height="220" rx="42" fill="none" stroke="url(#og-border)" stroke-width="5" />
    <path
      d="M45 181.5 96.2 74.5c1.8-3.8 7.2-3.8 9 0l51.2 107h-22.2l-9.4-20.2H76.4L67 181.5H45Zm40-39.3h31.2l-15.6-34.1L85 142.2Z"
      fill="#F8F3EA"
    />
    <circle cx="163" cy="128" r="47.5" fill="none" stroke="#FF8A72" stroke-width="20" />
    <circle cx="163" cy="128" r="24" fill="#070605" stroke="#241A15" stroke-width="4" />
    <path d="M49 203h158" stroke="#F8F3EA" stroke-width="5" stroke-linecap="round" opacity="0.72" />
    <path d="M61 216h54M141 216h54" stroke="#C74634" stroke-width="5" stroke-linecap="round" opacity="0.9" />
  </g>

  <g font-family="Inter, ui-sans-serif, system-ui, -apple-system, BlinkMacSystemFont, Segoe UI, sans-serif">
    <text x="470" y="228" fill="#F8F3EA" font-size="58" font-weight="750" letter-spacing="0">Abderrahmane Ouroui</text>
    <text x="474" y="292" fill="#FF8A72" font-size="31" font-weight="650" letter-spacing="0">DevOps Engineer / Platform Engineer</text>
    <text x="474" y="360" fill="#D8CEC2" font-size="27" font-weight="450" letter-spacing="0">
      OCI architecture, Kubernetes delivery, Terraform automation,
    </text>
    <text x="474" y="400" fill="#D8CEC2" font-size="27" font-weight="450" letter-spacing="0">
      secure networking, observability, and MLOps foundations.
    </text>
    <text x="474" y="525" fill="#A79B8F" font-size="24" font-weight="600" letter-spacing="2">AOUROUI.DEV</text>
  </g>
</svg>
