<svg fill="none" role="img" viewBox="0 0 24 24" xmlns="http://www.w3.org/2000/svg"><title>Helm</title><circle cx="12" cy="12" r="10" fill="#0F1689"/><circle cx="12" cy="12" r="6.25" stroke="#fff" stroke-width="1.4"/><circle cx="12" cy="12" r="1.35" fill="#fff"/><g fill="#fff"><rect height="4.3" rx=".7" transform="rotate(0 12 2.5)" width="1.4" x="11.3" y="1.6"/><rect height="4.3" rx=".7" transform="rotate(45 18.7 5.3)" width="1.4" x="18" y="3.15"/><rect height="4.3" rx=".7" transform="rotate(90 21.5 12)" width="1.4" x="20.8" y="9.85"/><rect height="4.3" rx=".7" transform="rotate(135 18.7 18.7)" width="1.4" x="18" y="16.55"/><rect height="4.3" rx=".7" transform="rotate(180 12 21.5)" width="1.4" x="11.3" y="19.35"/><rect height="4.3" rx=".7" transform="rotate(225 5.3 18.7)" width="1.4" x="4.6" y="16.55"/><rect height="4.3" rx=".7" transform="rotate(270 2.5 12)" width="1.4" x="1.8" y="9.85"/><rect height="4.3" rx=".7" transform="rotate(315 5.3 5.3)" width="1.4" x="4.6" y="3.15"/></g></svg>
