<svg role="img" viewBox="0 0 24 24" xmlns="http://www.w3.org/2000/svg">
  <title>GitHub</title>
  <path fill="#ffffff" d="M12 .5C5.65.5.5 5.65.5 12c0 5.08 3.29 9.39 7.86 10.91.58.11.79-.25.79-.56v-2.14c-3.2.7-3.87-1.36-3.87-1.36-.52-1.33-1.28-1.69-1.28-1.69-1.05-.72.08-.7.08-.7 1.16.08 1.77 1.19 1.77 1.19 1.03 1.76 2.7 1.25 3.36.96.1-.75.4-1.25.73-1.54-2.55-.29-5.23-1.27-5.23-5.67 0-1.25.45-2.28 1.18-3.08-.12-.29-.51-1.46.11-3.04 0 0 .96-.31 3.16 1.18A10.93 10.93 0 0 1 12 6.07c.98 0 1.95.13 2.87.39 2.19-1.49 3.15-1.18 3.15-1.18.63 1.58.24 2.75.12 3.04.74.8 1.18 1.83 1.18 3.08 0 4.41-2.69 5.38-5.25 5.66.42.36.78 1.07.78 2.16v3.13c0 .31.21.68.8.56A11.51 11.51 0 0 0 23.5 12C23.5 5.65 18.35.5 12 .5Z"/>
</svg>
