<svg role="img" viewBox="0 0 24 24" xmlns="http://www.w3.org/2000/svg">
  <title>LinkedIn</title>
  <path fill="#0A66C2" d="M20.45 20.45h-3.56v-5.57c0-1.33-.02-3.04-1.85-3.04-1.85 0-2.14 1.45-2.14 2.94v5.67H9.34V9h3.41v1.56h.05c.47-.9 1.64-1.85 3.36-1.85 3.6 0 4.26 2.37 4.26 5.45v6.29h.03ZM5.32 7.43a2.06 2.06 0 1 1 0-4.13 2.06 2.06 0 0 1 0 4.13Zm1.78 13.02H3.53V9H7.1v11.45ZM22.23 0H1.76C.79 0 0 .77 0 1.73v20.54C0 23.23.79 24 1.76 24h20.47c.97 0 1.77-.77 1.77-1.73V1.73C24 .77 23.2 0 22.23 0Z"/>
</svg>
